<svg width="400" height="309" viewBox="0 0 400 309" fill="none" xmlns="http://www.w3.org/2000/svg">
<path d="M38.4288 308.214C38.4122 308.404 38.4715 308.594 38.594 308.741C38.7164 308.888 38.892 308.981 39.0828 309H365.074C365.258 308.967 365.426 308.87 365.546 308.726C365.667 308.583 365.733 308.401 365.733 308.214C365.733 308.026 365.667 307.845 365.546 307.701C365.426 307.557 365.258 307.46 365.074 307.427H39.0828C38.892 307.446 38.7164 307.539 38.594 307.686C38.4715 307.833 38.4122 308.023 38.4288 308.214Z" fill="#D6D6E3"/>
<path d="M213.597 230.62C213.123 233.883 211.488 236.867 208.991 239.025C206.494 241.183 203.302 242.37 200 242.37C196.698 242.37 193.506 241.183 191.009 239.025C188.512 236.867 186.877 233.883 186.403 230.62H151.617V307.428H248.383V230.62H213.597Z" fill="#D6D6E3"/>
<path d="M394.605 232.587H5.39448C3.96422 232.585 2.59296 232.017 1.58161 231.007C0.570269 229.997 0.001456 228.628 0 227.2L0 5.38695C0.001456 3.95869 0.570269 2.58934 1.58161 1.57941C2.59296 0.569474 3.96422 0.00145397 5.39448 0H394.605C396.036 0.00185038 397.406 0.570045 398.417 1.57994C399.428 2.58983 399.997 3.95895 399.999 5.38695V227.2C399.997 228.628 399.428 229.997 398.417 231.007C397.406 232.017 396.034 232.585 394.604 232.587H394.605Z" fill="#090814"/>
<path d="M390.916 8.98889H10.0439V223.598H390.916V8.98889Z" fill="white"/>
<path d="M46.5299 22.0291C47.7126 22.0291 48.6714 21.0717 48.6714 19.8906C48.6714 18.7096 47.7126 17.7521 46.5299 17.7521C45.3472 17.7521 44.3884 18.7096 44.3884 19.8906C44.3884 21.0717 45.3472 22.0291 46.5299 22.0291Z" fill="#6C63FF"/>
<path d="M54.6593 22.0291C55.842 22.0291 56.8008 21.0717 56.8008 19.8906C56.8008 18.7096 55.842 17.7521 54.6593 17.7521C53.4766 17.7521 52.5178 18.7096 52.5178 19.8906C52.5178 21.0717 53.4766 22.0291 54.6593 22.0291Z" fill="#6C63FF"/>
<path d="M62.7882 22.0291C63.9709 22.0291 64.9297 21.0717 64.9297 19.8906C64.9297 18.7096 63.9709 17.7521 62.7882 17.7521C61.6055 17.7521 60.6467 18.7096 60.6467 19.8906C60.6467 21.0717 61.6055 22.0291 62.7882 22.0291Z" fill="#6C63FF"/>
<path d="M106.076 73.0436H47.6719C46.8012 73.0436 45.9661 72.6982 45.3505 72.0834C44.7348 71.4686 44.3889 70.6347 44.3889 69.7652C44.3889 68.8957 44.7348 68.0619 45.3505 67.447C45.9661 66.8322 46.8012 66.4868 47.6719 66.4868H106.076C106.946 66.4868 107.781 66.8322 108.397 67.447C109.013 68.0619 109.359 68.8957 109.359 69.7652C109.359 70.6347 109.013 71.4686 108.397 72.0834C107.781 72.6982 106.946 73.0436 106.076 73.0436Z" fill="#CCCCCC"/>
<path d="M106.076 60.4473H47.6719C46.8012 60.4473 45.9661 60.1019 45.3505 59.4871C44.7348 58.8723 44.3889 58.0384 44.3889 57.1689C44.3889 56.2994 44.7348 55.4655 45.3505 54.8507C45.9661 54.2359 46.8012 53.8905 47.6719 53.8905H106.076C106.946 53.8905 107.781 54.2359 108.397 54.8507C109.013 55.4655 109.359 56.2994 109.359 57.1689C109.359 58.0384 109.013 58.8723 108.397 59.4871C107.781 60.1019 106.946 60.4473 106.076 60.4473Z" fill="#CCCCCC"/>
<path d="M64.2598 85.4672H47.6719C46.8012 85.4672 45.9661 85.1218 45.3505 84.507C44.7348 83.8922 44.3889 83.0583 44.3889 82.1888C44.3889 81.3193 44.7348 80.4855 45.3505 79.8706C45.9661 79.2558 46.8012 78.9104 47.6719 78.9104H64.2598C65.1305 78.9104 65.9656 79.2558 66.5812 79.8706C67.1969 80.4855 67.5428 81.3193 67.5428 82.1888C67.5428 83.0583 67.1969 83.8922 66.5812 84.507C65.9656 85.1218 65.1305 85.4672 64.2598 85.4672Z" fill="#CCCCCC"/>
<path d="M106.076 189.381H47.6719C46.8012 189.381 45.9661 189.035 45.3505 188.42C44.7348 187.806 44.3889 186.972 44.3889 186.102C44.3889 185.233 44.7348 184.399 45.3505 183.784C45.9661 183.169 46.8012 182.824 47.6719 182.824H106.076C106.946 182.824 107.781 183.169 108.397 183.784C109.013 184.399 109.359 185.233 109.359 186.102C109.359 186.972 109.013 187.806 108.397 188.42C107.781 189.035 106.946 189.381 106.076 189.381Z" fill="#CCCCCC"/>
<path d="M106.076 176.784H47.6719C46.8012 176.784 45.9661 176.439 45.3505 175.824C44.7348 175.209 44.3889 174.375 44.3889 173.506C44.3889 172.636 44.7348 171.802 45.3505 171.188C45.9661 170.573 46.8012 170.227 47.6719 170.227H106.076C106.946 170.227 107.781 170.573 108.397 171.188C109.013 171.802 109.359 172.636 109.359 173.506C109.359 174.375 109.013 175.209 108.397 175.824C107.781 176.439 106.946 176.784 106.076 176.784Z" fill="#CCCCCC"/>
<path d="M64.2598 201.804H47.6719C46.8012 201.804 45.9661 201.459 45.3505 200.844C44.7348 200.229 44.3889 199.395 44.3889 198.526C44.3889 197.656 44.7348 196.822 45.3505 196.208C45.9661 195.593 46.8012 195.247 47.6719 195.247H64.2598C65.1305 195.247 65.9656 195.593 66.5812 196.208C67.1969 196.822 67.5428 197.656 67.5428 198.526C67.5428 199.395 67.1969 200.229 66.5812 200.844C65.9656 201.459 65.1305 201.804 64.2598 201.804Z" fill="#CCCCCC"/>
<path d="M104.641 146.297C103.768 146.299 102.93 145.956 102.309 145.344L86.8453 130.095C86.5417 129.795 86.3007 129.439 86.1362 129.046C85.9717 128.653 85.887 128.231 85.887 127.805C85.887 127.379 85.9717 126.957 86.1362 126.564C86.3007 126.171 86.5417 125.814 86.8453 125.515L102.245 110.327C102.887 109.697 103.751 109.346 104.651 109.348C105.55 109.351 106.413 109.708 107.05 110.342C107.688 110.981 108.047 111.846 108.047 112.749C108.047 113.651 107.688 114.516 107.05 115.155L95.6072 126.585C95.2507 126.942 95.0504 127.425 95.0504 127.929C95.0504 128.433 95.2507 128.917 95.6072 129.274L106.989 140.64C107.454 141.104 107.771 141.695 107.899 142.338C108.027 142.981 107.961 143.648 107.71 144.254C107.458 144.86 107.032 145.377 106.485 145.741C105.938 146.105 105.296 146.298 104.639 146.297H104.641Z" fill="#6C63FF"/>
<path d="M178.648 73.0436H120.245C119.374 73.0436 118.539 72.6982 117.923 72.0834C117.308 71.4686 116.962 70.6347 116.962 69.7652C116.962 68.8957 117.308 68.0619 117.923 67.447C118.539 66.8322 119.374 66.4868 120.245 66.4868H178.648C179.519 66.4868 180.354 66.8322 180.97 67.447C181.586 68.0619 181.931 68.8957 181.931 69.7652C181.931 70.6347 181.586 71.4686 180.97 72.0834C180.354 72.6982 179.519 73.0436 178.648 73.0436Z" fill="#CCCCCC"/>
<path d="M178.648 85.4672H77.0486C76.1779 85.4672 75.3429 85.1218 74.7272 84.507C74.1115 83.8922 73.7656 83.0583 73.7656 82.1888C73.7656 81.3193 74.1115 80.4855 74.7272 79.8706C75.3429 79.2558 76.1779 78.9104 77.0486 78.9104H178.648C179.519 78.9104 180.354 79.2558 180.97 79.8706C181.585 80.4855 181.931 81.3193 181.931 82.1888C181.931 83.0583 181.585 83.8922 180.97 84.507C180.354 85.1218 179.519 85.4672 178.648 85.4672Z" fill="#CCCCCC"/>
<path d="M138.215 60.62H121.626C120.755 60.62 119.92 60.2746 119.304 59.6598C118.688 59.045 118.343 58.2111 118.343 57.3416C118.343 56.4722 118.688 55.6383 119.304 55.0235C119.92 54.4086 120.755 54.0632 121.626 54.0632H138.213C139.084 54.0632 139.919 54.4086 140.535 55.0235C141.151 55.6383 141.496 56.4722 141.496 57.3416C141.496 58.2111 141.151 59.045 140.535 59.6598C139.919 60.2746 139.084 60.62 138.213 60.62H138.215Z" fill="#CCCCCC"/>
<path d="M178.648 189.381H120.245C119.374 189.381 118.539 189.035 117.923 188.42C117.308 187.806 116.962 186.972 116.962 186.102C116.962 185.233 117.308 184.399 117.923 183.784C118.539 183.169 119.374 182.824 120.245 182.824H178.648C179.519 182.824 180.354 183.169 180.97 183.784C181.586 184.399 181.931 185.233 181.931 186.102C181.931 186.972 181.586 187.806 180.97 188.42C180.354 189.035 179.519 189.381 178.648 189.381Z" fill="#CCCCCC"/>
<path d="M178.648 201.804H77.0486C76.1779 201.804 75.3429 201.459 74.7272 200.844C74.1115 200.229 73.7656 199.395 73.7656 198.526C73.7656 197.656 74.1115 196.822 74.7272 196.208C75.3429 195.593 76.1779 195.247 77.0486 195.247H178.648C179.519 195.247 180.354 195.593 180.97 196.208C181.585 196.822 181.931 197.656 181.931 198.526C181.931 199.395 181.585 200.229 180.97 200.844C180.354 201.459 179.519 201.804 178.648 201.804Z" fill="#CCCCCC"/>
<path d="M138.215 176.957H121.626C120.755 176.957 119.92 176.612 119.304 175.997C118.688 175.382 118.343 174.548 118.343 173.679C118.343 172.809 118.688 171.975 119.304 171.36C119.92 170.746 120.755 170.4 121.626 170.4H138.213C139.084 170.4 139.919 170.746 140.535 171.36C141.151 171.975 141.496 172.809 141.496 173.679C141.496 174.548 141.151 175.382 140.535 175.997C139.919 176.612 139.084 176.957 138.213 176.957H138.215Z" fill="#CCCCCC"/>
<path d="M129.282 146.297C128.625 146.298 127.983 146.105 127.436 145.741C126.889 145.377 126.463 144.86 126.212 144.254C125.96 143.648 125.894 142.981 126.022 142.338C126.15 141.695 126.467 141.104 126.932 140.64L138.314 129.274C138.67 128.917 138.871 128.433 138.871 127.929C138.871 127.425 138.67 126.942 138.314 126.585L126.871 115.156C126.232 114.517 125.873 113.652 125.873 112.749C125.873 111.846 126.232 110.981 126.871 110.342C127.509 109.709 128.371 109.352 129.27 109.349C130.17 109.346 131.034 109.698 131.676 110.327L147.076 125.515C147.379 125.814 147.621 126.171 147.785 126.564C147.95 126.957 148.034 127.379 148.034 127.805C148.034 128.231 147.95 128.653 147.785 129.046C147.621 129.439 147.379 129.796 147.076 130.095L131.612 145.344C130.992 145.956 130.154 146.298 129.282 146.297Z" fill="#6C63FF"/>
<path d="M353.992 101.228H277.242C275.873 101.228 274.762 99.7602 274.762 97.9497C274.762 96.1393 275.873 94.6713 277.242 94.6713H353.992C355.362 94.6713 356.472 96.1393 356.472 97.9497C356.472 99.7602 355.362 101.228 353.992 101.228Z" fill="#6C63FF"/>
<path d="M251.499 113.928C260.335 113.928 267.499 106.774 267.499 97.9503C267.499 89.1261 260.335 81.9727 251.499 81.9727C242.662 81.9727 235.499 89.1261 235.499 97.9503C235.499 106.774 242.662 113.928 251.499 113.928Z" fill="#F2F2F2"/>
<path d="M251.499 82.9713C248.038 82.9734 244.685 84.17 242.007 86.3585C239.328 88.5469 237.49 91.5926 236.803 94.9795C236.116 98.3665 236.622 101.886 238.237 104.943C239.851 108 242.474 110.406 245.66 111.752C249.326 113.299 253.457 113.328 257.144 111.833C260.831 110.338 263.772 107.441 265.32 103.781C266.869 100.12 266.898 95.9951 265.401 92.3133C263.904 88.6315 261.003 85.6944 257.337 84.1481C255.49 83.3676 253.505 82.9673 251.499 82.9713ZM251.499 81.9727C254.663 81.9727 257.757 82.9097 260.388 84.6654C263.019 86.421 265.07 88.9164 266.281 91.8359C267.492 94.7554 267.809 97.968 267.191 101.067C266.574 104.167 265.05 107.014 262.813 109.248C260.575 111.483 257.724 113.004 254.62 113.621C251.517 114.237 248.3 113.921 245.376 112.712C242.452 111.502 239.954 109.454 238.195 106.827C236.437 104.199 235.499 101.11 235.499 97.9503C235.499 93.7127 237.185 89.6488 240.185 86.6524C243.186 83.656 247.256 81.9727 251.499 81.9727Z" fill="#090814"/>
<path d="M249.721 104.726C249.495 104.726 249.273 104.674 249.072 104.573C248.871 104.473 248.696 104.327 248.561 104.147L245.004 99.4117C244.89 99.2596 244.807 99.0864 244.759 98.9022C244.712 98.718 244.702 98.5263 244.729 98.338C244.756 98.1497 244.819 97.9686 244.917 97.805C245.014 97.6414 245.142 97.4984 245.294 97.3843C245.447 97.2702 245.62 97.1872 245.805 97.1401C245.989 97.0929 246.181 97.0824 246.37 97.1094C246.558 97.1363 246.739 97.2 246.903 97.2969C247.067 97.3938 247.21 97.522 247.325 97.6742L249.652 100.77L255.628 91.8179C255.734 91.6597 255.869 91.5238 256.028 91.418C256.186 91.3122 256.364 91.2385 256.55 91.2012C256.737 91.164 256.929 91.1638 257.116 91.2007C257.303 91.2376 257.481 91.3109 257.639 91.4164C257.797 91.5219 257.934 91.6576 258.039 91.8156C258.145 91.9736 258.219 92.1509 258.256 92.3374C258.294 92.5239 258.294 92.7159 258.257 92.9024C258.22 93.0889 258.147 93.2664 258.041 93.4246L250.928 104.08C250.799 104.272 250.626 104.432 250.423 104.544C250.22 104.656 249.993 104.718 249.762 104.724L249.721 104.726Z" fill="#6C63FF"/>
<path d="M251.499 157.866C260.335 157.866 267.499 150.713 267.499 141.889C267.499 133.064 260.335 125.911 251.499 125.911C242.662 125.911 235.499 133.064 235.499 141.889C235.499 150.713 242.662 157.866 251.499 157.866Z" fill="#F2F2F2"/>
<path d="M251.499 126.91C248.038 126.912 244.685 128.108 242.007 130.297C239.328 132.485 237.49 135.531 236.803 138.918C236.116 142.305 236.622 145.825 238.237 148.882C239.851 151.938 242.474 154.344 245.66 155.691C249.326 157.237 253.457 157.266 257.144 155.771C260.831 154.276 263.772 151.38 265.32 147.719C266.869 144.058 266.898 139.934 265.401 136.252C263.904 132.57 261.003 129.633 257.337 128.087C255.49 127.306 253.505 126.906 251.499 126.91ZM251.499 125.911C254.663 125.911 257.757 126.848 260.388 128.604C263.019 130.359 265.07 132.855 266.281 135.774C267.492 138.694 267.809 141.906 267.191 145.006C266.574 148.105 265.05 150.952 262.813 153.187C260.575 155.421 257.724 156.943 254.62 157.559C251.517 158.176 248.3 157.859 245.376 156.65C242.452 155.441 239.954 153.393 238.195 150.765C236.437 148.138 235.499 145.049 235.499 141.889C235.499 137.651 237.185 133.587 240.185 130.591C243.186 127.594 247.256 125.911 251.499 125.911Z" fill="#090814"/>
<path d="M255.927 137.088C255.44 136.362 254.781 135.767 254.008 135.356C253.236 134.944 252.374 134.729 251.499 134.729C250.624 134.729 249.762 134.944 248.99 135.356C248.217 135.767 247.558 136.362 247.071 137.088C247.429 137.968 248.042 138.72 248.831 139.25C249.619 139.78 250.548 140.063 251.499 140.063C252.45 140.063 253.379 139.78 254.167 139.25C254.956 138.72 255.569 137.968 255.927 137.088Z" fill="#6C63FF"/>
<path d="M246.496 137.932C246.418 137.899 246.344 137.857 246.276 137.807C246.172 137.723 246.09 137.616 246.034 137.494C246.105 137.348 246.135 137.185 246.12 137.022C246.106 136.86 246.047 136.705 245.95 136.573C245.854 136.442 245.723 136.339 245.573 136.277C245.422 136.214 245.257 136.193 245.096 136.217C244.934 136.241 244.782 136.309 244.657 136.412C244.531 136.516 244.436 136.652 244.382 136.806C244.328 136.96 244.317 137.125 244.35 137.285C244.383 137.445 244.459 137.592 244.57 137.712C244.633 137.778 244.704 137.835 244.783 137.882C244.884 137.941 244.967 138.028 245.021 138.132C245.123 138.338 245.264 138.523 245.436 138.676C245.612 138.827 245.802 138.96 246.004 139.075C245.726 139.86 245.568 140.682 245.537 141.514C245.214 141.52 244.894 141.571 244.587 141.668C244.429 141.717 244.28 141.791 244.146 141.887C244.11 141.883 244.073 141.88 244.037 141.88C243.873 141.879 243.711 141.924 243.57 142.008C243.429 142.093 243.314 142.215 243.238 142.36C243.161 142.505 243.126 142.669 243.136 142.833C243.146 142.997 243.2 143.155 243.294 143.29C243.388 143.425 243.517 143.532 243.667 143.599C243.817 143.666 243.983 143.691 244.146 143.67C244.309 143.65 244.464 143.585 244.593 143.483C244.722 143.381 244.82 143.246 244.878 143.092C244.913 142.993 244.975 142.906 245.057 142.84C245.139 142.774 245.237 142.731 245.341 142.718C245.418 142.708 245.495 142.703 245.572 142.703C245.679 143.876 246.044 145.011 246.64 146.028C246.169 146.359 245.82 146.835 245.647 147.382C245.622 147.396 245.598 147.413 245.576 147.432C245.538 147.462 245.503 147.494 245.471 147.53C245.364 147.647 245.29 147.791 245.257 147.946C245.224 148.102 245.233 148.263 245.283 148.414C245.333 148.565 245.423 148.699 245.542 148.804C245.661 148.909 245.807 148.98 245.963 149.011C246.119 149.041 246.28 149.03 246.43 148.977C246.58 148.925 246.714 148.833 246.817 148.713C246.92 148.592 246.989 148.446 247.017 148.289C247.045 148.133 247.031 147.972 246.976 147.823C246.935 147.715 246.927 147.597 246.953 147.484C246.979 147.371 247.038 147.269 247.122 147.189C247.189 147.125 247.26 147.064 247.334 147.007C247.779 147.585 248.34 148.065 248.981 148.414C249.622 148.763 250.329 148.974 251.057 149.035V141.024C250.092 140.952 249.164 140.628 248.363 140.085C247.563 139.543 246.919 138.8 246.496 137.932ZM258.962 141.888C258.925 141.888 258.889 141.891 258.853 141.895C258.718 141.801 258.569 141.727 258.412 141.675C258.104 141.579 257.785 141.527 257.462 141.522C257.427 140.691 257.27 139.87 256.995 139.085C257.197 138.97 257.387 138.836 257.563 138.685C257.74 138.523 257.886 138.33 257.993 138.115C258.043 138.022 258.12 137.946 258.214 137.897C258.366 137.812 258.49 137.683 258.57 137.529C258.65 137.374 258.683 137.199 258.665 137.025C258.647 136.852 258.579 136.687 258.468 136.552C258.358 136.417 258.211 136.317 258.044 136.264C257.878 136.211 257.699 136.208 257.531 136.256C257.363 136.303 257.212 136.398 257.097 136.529C256.983 136.661 256.909 136.823 256.885 136.996C256.861 137.168 256.889 137.344 256.964 137.502C256.909 137.624 256.826 137.731 256.722 137.815C256.651 137.873 256.578 137.926 256.502 137.976C256.076 138.838 255.432 139.574 254.632 140.11C253.833 140.646 252.907 140.963 251.946 141.029V149.049C252.674 148.987 253.38 148.775 254.021 148.426C254.662 148.077 255.223 147.598 255.669 147.021C255.747 147.083 255.814 147.139 255.869 147.192C255.956 147.273 256.018 147.378 256.046 147.494C256.074 147.61 256.067 147.732 256.026 147.844C255.972 147.993 255.957 148.153 255.985 148.309C256.013 148.465 256.082 148.611 256.185 148.732C256.288 148.853 256.421 148.944 256.571 148.996C256.721 149.049 256.882 149.061 257.038 149.031C257.194 149.001 257.339 148.93 257.458 148.826C257.578 148.721 257.667 148.587 257.718 148.437C257.768 148.286 257.778 148.126 257.746 147.97C257.714 147.815 257.641 147.671 257.535 147.553C257.502 147.518 257.467 147.485 257.43 147.456C257.389 147.423 257.359 147.406 257.359 147.406C257.186 146.856 256.834 146.379 256.359 146.052C256.954 145.035 257.319 143.899 257.426 142.726C257.5 142.727 257.574 142.732 257.647 142.741C257.753 142.755 257.854 142.797 257.938 142.863C258.023 142.928 258.088 143.015 258.128 143.115C258.202 143.305 258.339 143.464 258.516 143.565C258.693 143.666 258.9 143.704 259.102 143.673C259.303 143.641 259.488 143.542 259.625 143.391C259.763 143.24 259.845 143.047 259.857 142.843C259.863 142.721 259.845 142.599 259.802 142.484C259.76 142.369 259.695 142.264 259.611 142.174C259.527 142.085 259.426 142.014 259.313 141.965C259.201 141.915 259.08 141.889 258.957 141.888L258.962 141.888Z" fill="#6C63FF"/>
<path d="M353.992 145.167H277.242C275.873 145.167 274.762 143.699 274.762 141.888C274.762 140.078 275.873 138.61 277.242 138.61H353.992C355.362 138.61 356.472 140.078 356.472 141.888C356.472 143.699 355.362 145.167 353.992 145.167Z" fill="#6C63FF"/>
<path d="M251.499 201.805C260.335 201.805 267.499 194.651 267.499 185.827C267.499 177.003 260.335 169.849 251.499 169.849C242.662 169.849 235.499 177.003 235.499 185.827C235.499 194.651 242.662 201.805 251.499 201.805Z" fill="#F2F2F2"/>
<path d="M251.499 170.848C248.038 170.85 244.685 172.047 242.007 174.235C239.328 176.424 237.49 179.469 236.803 182.856C236.116 186.243 236.622 189.763 238.237 192.82C239.851 195.877 242.474 198.282 245.66 199.629C249.326 201.176 253.457 201.204 257.144 199.709C260.831 198.214 263.772 195.318 265.32 191.657C266.869 187.997 266.898 183.872 265.401 180.19C263.904 176.508 261.003 173.571 257.337 172.025C255.49 171.244 253.505 170.844 251.499 170.848ZM251.499 169.849C254.663 169.849 257.757 170.787 260.388 172.542C263.019 174.298 265.07 176.793 266.281 179.713C267.492 182.632 267.809 185.845 267.191 188.944C266.574 192.044 265.05 194.89 262.813 197.125C260.575 199.359 257.724 200.881 254.62 201.498C251.517 202.114 248.3 201.798 245.376 200.588C242.452 199.379 239.954 197.331 238.195 194.704C236.437 192.076 235.499 188.987 235.499 185.827C235.499 181.59 237.185 177.526 240.185 174.529C243.186 171.533 247.256 169.849 251.499 169.849Z" fill="#090814"/>
<path d="M251.36 177.339L251.897 177.343L252.412 177.357L252.662 177.368L253.146 177.396L253.608 177.435C257.527 177.815 259.169 179.382 259.6 183.201L259.625 183.443L259.664 183.905L259.698 184.512L259.703 184.638L259.717 185.153L259.721 185.689L259.717 186.227L259.703 186.741L259.692 186.99L259.664 187.474L259.625 187.936C259.245 191.849 257.675 193.488 253.851 193.919L253.608 193.944L253.146 193.983L252.538 194.017L252.412 194.022L251.897 194.036L251.36 194.04L250.823 194.036L250.308 194.022L250.058 194.011L249.574 193.983L249.111 193.944C245.193 193.563 243.549 191.995 243.12 188.176L243.095 187.934L243.056 187.475L243.022 186.866L243.017 186.74L243.003 186.227L242.999 185.959V185.419L243.002 185.153L243.016 184.639L243.027 184.389L243.056 183.906L243.094 183.444C243.475 179.53 245.044 177.891 248.869 177.46L249.111 177.435L249.574 177.397L250.182 177.362L250.307 177.357L250.823 177.343C250.999 177.34 251.178 177.339 251.36 177.339ZM251.369 188.194L251.263 188.2C251.059 188.224 250.872 188.322 250.736 188.475C250.6 188.627 250.524 188.825 250.524 189.029C250.524 189.234 250.6 189.431 250.736 189.584C250.872 189.737 251.059 189.835 251.263 189.858L251.363 189.864L251.469 189.858C251.672 189.835 251.859 189.737 251.995 189.584C252.131 189.431 252.207 189.234 252.207 189.029C252.207 188.825 252.131 188.627 251.995 188.475C251.859 188.322 251.672 188.224 251.469 188.2L251.369 188.194ZM251.36 180.679C251.155 180.679 250.958 180.754 250.804 180.89C250.651 181.025 250.554 181.213 250.53 181.416L250.524 181.516V186.526L250.53 186.626C250.553 186.829 250.651 187.016 250.804 187.152C250.957 187.288 251.155 187.363 251.36 187.363C251.565 187.363 251.762 187.288 251.915 187.152C252.068 187.016 252.166 186.829 252.19 186.626L252.196 186.526V181.514L252.19 181.414C252.166 181.211 252.068 181.024 251.915 180.888C251.762 180.752 251.564 180.677 251.36 180.677L251.36 180.679Z" fill="#6C63FF"/>
<path d="M353.992 189.105H277.242C275.873 189.105 274.762 187.637 274.762 185.827C274.762 184.016 275.873 182.548 277.242 182.548H353.992C355.362 182.548 356.472 184.016 356.472 185.827C356.472 187.637 355.362 189.105 353.992 189.105Z" fill="#6C63FF"/>
<path d="M356.249 28.4616H44.2498V27.9623H356.249V28.4616Z" fill="#CCCCCC"/>
<path d="M267.323 65.2366C267.241 65.3711 267.133 65.4881 267.006 65.5809C266.878 65.6738 266.734 65.7407 266.581 65.7778C266.428 65.8149 266.269 65.8214 266.113 65.7971C265.957 65.7728 265.808 65.7181 265.673 65.636L251.659 57.102C251.388 56.9365 251.193 56.6699 251.118 56.3609C251.043 56.0519 251.094 55.7258 251.26 55.4543C251.425 55.1828 251.692 54.9882 252.002 54.9133C252.311 54.8384 252.638 54.8893 252.909 55.0549L266.922 63.5899C267.057 63.6717 267.174 63.7792 267.267 63.9063C267.36 64.0333 267.427 64.1774 267.464 64.3303C267.501 64.4832 267.508 64.642 267.484 64.7975C267.46 64.953 267.405 65.1022 267.323 65.2366Z" fill="#3F3D56"/>
<path d="M253.31 56.7016C252.321 58.3217 250.873 59.6124 249.149 60.4105C247.425 61.2086 245.502 61.4783 243.625 61.1854C241.747 60.8925 239.999 60.0503 238.601 58.7651C237.203 57.48 236.218 55.8097 235.77 53.9654C235.322 52.1212 235.433 50.1858 236.087 48.4041C236.741 46.6223 237.909 45.0743 239.444 43.9556C240.979 42.837 242.812 42.198 244.71 42.1195C246.609 42.041 248.488 42.5265 250.111 43.5145C252.286 44.8395 253.845 46.9732 254.445 49.4462C255.046 51.9193 254.637 54.5291 253.31 56.7016ZM238.956 47.9583C238.214 49.1734 237.849 50.5809 237.908 52.0029C237.967 53.4249 238.447 54.7976 239.287 55.9472C240.127 57.0968 241.29 57.9719 242.628 58.4617C243.966 58.9514 245.42 59.0339 246.805 58.6987C248.19 58.3636 249.445 57.6257 250.41 56.5786C251.375 55.5314 252.008 54.2219 252.228 52.8158C252.448 51.4096 252.245 49.9699 251.646 48.6786C251.046 47.3874 250.077 46.3027 248.86 45.5617C247.228 44.5682 245.268 44.2625 243.411 44.712C241.554 45.1614 239.952 46.3292 238.957 47.9583H238.956Z" fill="#3F3D56"/>
<path d="M294.25 66.0789H277.182C276.603 66.0782 276.048 65.8483 275.639 65.4397C275.23 65.031 275 64.4769 274.999 63.8989V43.882C275 43.304 275.23 42.7499 275.639 42.3413C276.048 41.9326 276.603 41.7027 277.182 41.702H293.061L296.433 44.3863V63.8994C296.433 64.4774 296.202 65.0314 295.793 65.44C295.384 65.8486 294.829 66.0783 294.25 66.0789Z" fill="#090814"/>
<path d="M277.182 42.3297C276.77 42.3302 276.375 42.4939 276.084 42.7849C275.792 43.0759 275.628 43.4704 275.628 43.882V63.8989C275.628 64.3105 275.792 64.705 276.084 64.996C276.375 65.287 276.77 65.4507 277.182 65.4513H294.25C294.662 65.4507 295.057 65.287 295.349 64.996C295.64 64.705 295.804 64.3105 295.805 63.8989V44.6883L292.841 42.3297H277.182Z" fill="white"/>
<path d="M290.928 48.1495H283.159C283.063 48.1495 282.971 48.1113 282.902 48.0432C282.834 47.9751 282.796 47.8828 282.796 47.7865C282.796 47.6902 282.834 47.5979 282.902 47.5298C282.971 47.4618 283.063 47.4235 283.159 47.4235H290.928C291.025 47.4235 291.117 47.4618 291.185 47.5298C291.254 47.5979 291.292 47.6902 291.292 47.7865C291.292 47.8828 291.254 47.9751 291.185 48.0432C291.117 48.1113 291.025 48.1495 290.928 48.1495Z" fill="#6C63FF"/>
<path d="M292.428 49.3753H283.159C283.063 49.3753 282.971 49.337 282.902 49.269C282.834 49.2009 282.796 49.1085 282.796 49.0123C282.796 48.916 282.834 48.8237 282.902 48.7556C282.971 48.6875 283.063 48.6493 283.159 48.6493H292.428C292.525 48.6493 292.617 48.6875 292.685 48.7556C292.754 48.8237 292.792 48.916 292.792 49.0123C292.792 49.1085 292.754 49.2009 292.685 49.269C292.617 49.337 292.525 49.3753 292.428 49.3753Z" fill="#6C63FF"/>
<path d="M290.93 52.9153H283.159C283.063 52.9153 282.971 52.9536 282.902 53.0217C282.834 53.0897 282.796 53.1821 282.796 53.2783C282.796 53.3746 282.834 53.4669 282.902 53.535C282.971 53.6031 283.063 53.6413 283.159 53.6413H290.93C291.026 53.6413 291.119 53.6031 291.187 53.535C291.255 53.4669 291.293 53.3746 291.293 53.2783C291.293 53.1821 291.255 53.0897 291.187 53.0217C291.119 52.9536 291.026 52.9153 290.93 52.9153Z" fill="#CCCCCC"/>
<path d="M292.43 54.1406H283.16C283.064 54.1406 282.971 54.1789 282.903 54.2469C282.835 54.315 282.797 54.4073 282.797 54.5036C282.797 54.5999 282.835 54.6922 282.903 54.7603C282.971 54.8284 283.064 54.8666 283.16 54.8666H292.43C292.526 54.8666 292.619 54.8284 292.687 54.7603C292.755 54.6922 292.794 54.5999 292.794 54.5036C292.794 54.4073 292.755 54.315 292.687 54.2469C292.619 54.1789 292.526 54.1406 292.43 54.1406Z" fill="#CCCCCC"/>
<path d="M290.928 59.1311H283.159C283.063 59.1311 282.971 59.0928 282.902 59.0248C282.834 58.9567 282.796 58.8643 282.796 58.7681C282.796 58.6718 282.834 58.5795 282.902 58.5114C282.971 58.4433 283.063 58.4051 283.159 58.4051H290.928C291.025 58.4051 291.117 58.4433 291.185 58.5114C291.254 58.5795 291.292 58.6718 291.292 58.7681C291.292 58.8643 291.254 58.9567 291.185 59.0248C291.117 59.0928 291.025 59.1311 290.928 59.1311Z" fill="#CCCCCC"/>
<path d="M292.428 60.3574H283.159C283.063 60.3574 282.971 60.3192 282.902 60.2511C282.834 60.183 282.796 60.0907 282.796 59.9944C282.796 59.8981 282.834 59.8058 282.902 59.7377C282.971 59.6697 283.063 59.6314 283.159 59.6314H292.428C292.525 59.6314 292.617 59.6697 292.685 59.7377C292.754 59.8058 292.792 59.8981 292.792 59.9944C292.792 60.0907 292.754 60.183 292.685 60.2511C292.617 60.3192 292.525 60.3574 292.428 60.3574Z" fill="#CCCCCC"/>
<path d="M279.923 49.6824C280.633 49.6824 281.208 49.1079 281.208 48.3992C281.208 47.6905 280.633 47.116 279.923 47.116C279.214 47.116 278.638 47.6905 278.638 48.3992C278.638 49.1079 279.214 49.6824 279.923 49.6824Z" fill="#6C63FF"/>
<path d="M281.34 53.8904C281.341 54.0589 281.307 54.2258 281.243 54.3815C281.178 54.5372 281.084 54.6787 280.964 54.7979C280.845 54.9171 280.704 55.0117 280.548 55.0763C280.392 55.1408 280.225 55.1741 280.056 55.1741C280.045 55.1748 280.034 55.1748 280.023 55.1741C279.77 55.1676 279.525 55.0869 279.318 54.942C279.111 54.797 278.952 54.5944 278.86 54.3594C278.767 54.1243 278.747 53.8674 278.8 53.6206C278.853 53.3739 278.978 53.1484 279.159 52.9722C279.34 52.7961 279.569 52.6772 279.818 52.6304C280.066 52.5836 280.323 52.611 280.556 52.7092C280.789 52.8073 280.987 52.9719 281.127 53.1823C281.267 53.3927 281.341 53.6395 281.341 53.8919L281.34 53.8904Z" fill="#CCCCCC"/>
<path d="M279.923 60.665C280.633 60.665 281.208 60.0905 281.208 59.3818C281.208 58.6731 280.633 58.0986 279.923 58.0986C279.214 58.0986 278.638 58.6731 278.638 59.3818C278.638 60.0905 279.214 60.665 279.923 60.665Z" fill="#CCCCCC"/>
<path d="M296.368 44.4727H293.726C293.533 44.4727 293.348 44.3962 293.212 44.26C293.076 44.1239 292.999 43.9392 292.999 43.7467V41.7994C292.999 41.7909 293.002 41.7826 293.006 41.7755C293.011 41.7683 293.017 41.7625 293.025 41.7589C293.032 41.7552 293.041 41.7537 293.049 41.7546C293.058 41.7555 293.066 41.7587 293.073 41.764L296.396 44.3928C296.403 44.3986 296.408 44.4066 296.411 44.4156C296.413 44.4246 296.413 44.4342 296.41 44.4431C296.407 44.4519 296.401 44.4596 296.394 44.4651C296.386 44.4706 296.377 44.4736 296.368 44.4737V44.4727Z" fill="#090814"/>
<path d="M324.25 66.0789H307.182C306.603 66.0782 306.048 65.8483 305.639 65.4397C305.23 65.031 304.999 64.4769 304.999 63.8989V43.882C304.999 43.304 305.23 42.7499 305.639 42.3413C306.048 41.9326 306.603 41.7027 307.182 41.702H323.061L326.433 44.3863V63.8994C326.432 64.4774 326.202 65.0314 325.793 65.44C325.383 65.8486 324.828 66.0783 324.25 66.0789Z" fill="#090814"/>
<path d="M307.182 42.3297C306.77 42.3302 306.375 42.4939 306.083 42.7849C305.792 43.0759 305.628 43.4704 305.627 43.882V63.8989C305.628 64.3105 305.792 64.705 306.083 64.996C306.375 65.287 306.77 65.4507 307.182 65.4513H324.25C324.662 65.4507 325.057 65.287 325.348 64.996C325.64 64.705 325.804 64.3105 325.804 63.8989V44.6883L322.841 42.3297H307.182Z" fill="white"/>
<path d="M320.928 48.1495H313.159C313.063 48.1495 312.97 48.1113 312.902 48.0432C312.834 47.9751 312.796 47.8828 312.796 47.7865C312.796 47.6902 312.834 47.5979 312.902 47.5298C312.97 47.4618 313.063 47.4235 313.159 47.4235H320.928C321.025 47.4235 321.117 47.4618 321.185 47.5298C321.253 47.5979 321.292 47.6902 321.292 47.7865C321.292 47.8828 321.253 47.9751 321.185 48.0432C321.117 48.1113 321.025 48.1495 320.928 48.1495Z" fill="#6C63FF"/>
<path d="M322.428 49.3753H313.159C313.063 49.3753 312.97 49.337 312.902 49.269C312.834 49.2009 312.796 49.1085 312.796 49.0123C312.796 48.916 312.834 48.8237 312.902 48.7556C312.97 48.6875 313.063 48.6493 313.159 48.6493H322.428C322.525 48.6493 322.617 48.6875 322.685 48.7556C322.753 48.8237 322.792 48.916 322.792 49.0123C322.792 49.1085 322.753 49.2009 322.685 49.269C322.617 49.337 322.525 49.3753 322.428 49.3753Z" fill="#6C63FF"/>
<path d="M320.93 52.9153H313.159C313.063 52.9153 312.97 52.9536 312.902 53.0217C312.834 53.0897 312.796 53.1821 312.796 53.2783C312.796 53.3746 312.834 53.4669 312.902 53.535C312.97 53.6031 313.063 53.6413 313.159 53.6413H320.93C321.026 53.6413 321.119 53.6031 321.187 53.535C321.255 53.4669 321.293 53.3746 321.293 53.2783C321.293 53.1821 321.255 53.0897 321.187 53.0217C321.119 52.9536 321.026 52.9153 320.93 52.9153Z" fill="#CCCCCC"/>
<path d="M322.43 54.1406H313.16C313.063 54.1406 312.971 54.1789 312.903 54.2469C312.835 54.315 312.796 54.4073 312.796 54.5036C312.796 54.5999 312.835 54.6922 312.903 54.7603C312.971 54.8284 313.063 54.8666 313.16 54.8666H322.43C322.526 54.8666 322.619 54.8284 322.687 54.7603C322.755 54.6922 322.793 54.5999 322.793 54.5036C322.793 54.4073 322.755 54.315 322.687 54.2469C322.619 54.1789 322.526 54.1406 322.43 54.1406Z" fill="#CCCCCC"/>
<path d="M320.928 59.1311H313.159C313.063 59.1311 312.97 59.0928 312.902 59.0248C312.834 58.9567 312.796 58.8643 312.796 58.7681C312.796 58.6718 312.834 58.5795 312.902 58.5114C312.97 58.4433 313.063 58.4051 313.159 58.4051H320.928C321.025 58.4051 321.117 58.4433 321.185 58.5114C321.253 58.5795 321.292 58.6718 321.292 58.7681C321.292 58.8643 321.253 58.9567 321.185 59.0248C321.117 59.0928 321.025 59.1311 320.928 59.1311Z" fill="#CCCCCC"/>
<path d="M322.428 60.3574H313.159C313.063 60.3574 312.97 60.3192 312.902 60.2511C312.834 60.183 312.796 60.0907 312.796 59.9944C312.796 59.8981 312.834 59.8058 312.902 59.7377C312.97 59.6697 313.063 59.6314 313.159 59.6314H322.428C322.525 59.6314 322.617 59.6697 322.685 59.7377C322.753 59.8058 322.792 59.8981 322.792 59.9944C322.792 60.0907 322.753 60.183 322.685 60.2511C322.617 60.3192 322.525 60.3574 322.428 60.3574Z" fill="#CCCCCC"/>
<path d="M309.923 49.6824C310.633 49.6824 311.208 49.1079 311.208 48.3992C311.208 47.6905 310.633 47.116 309.923 47.116C309.213 47.116 308.638 47.6905 308.638 48.3992C308.638 49.1079 309.213 49.6824 309.923 49.6824Z" fill="#6C63FF"/>
<path d="M311.34 53.8904C311.34 54.0589 311.307 54.2258 311.243 54.3815C311.178 54.5372 311.084 54.6787 310.964 54.7979C310.845 54.9171 310.703 55.0117 310.547 55.0763C310.392 55.1408 310.224 55.1741 310.056 55.1741C310.045 55.1748 310.034 55.1748 310.023 55.1741C309.77 55.1676 309.525 55.0869 309.318 54.942C309.111 54.797 308.951 54.5944 308.859 54.3594C308.767 54.1243 308.746 53.8674 308.8 53.6206C308.853 53.3739 308.978 53.1484 309.159 52.9722C309.34 52.7961 309.569 52.6772 309.818 52.6304C310.066 52.5836 310.323 52.611 310.556 52.7092C310.788 52.8073 310.987 52.9719 311.127 53.1823C311.266 53.3927 311.341 53.6395 311.341 53.8919L311.34 53.8904Z" fill="#CCCCCC"/>
<path d="M309.923 60.665C310.633 60.665 311.208 60.0905 311.208 59.3818C311.208 58.6731 310.633 58.0986 309.923 58.0986C309.213 58.0986 308.638 58.6731 308.638 59.3818C308.638 60.0905 309.213 60.665 309.923 60.665Z" fill="#CCCCCC"/>
<path d="M326.367 44.4727H323.726C323.533 44.4727 323.348 44.3962 323.212 44.26C323.075 44.1239 322.999 43.9392 322.999 43.7467V41.7994C322.999 41.7909 323.001 41.7826 323.006 41.7755C323.01 41.7683 323.017 41.7625 323.025 41.7589C323.032 41.7552 323.041 41.7537 323.049 41.7546C323.058 41.7555 323.066 41.7587 323.072 41.764L326.395 44.3928C326.403 44.3986 326.408 44.4066 326.411 44.4156C326.413 44.4246 326.413 44.4342 326.41 44.4431C326.407 44.4519 326.401 44.4596 326.393 44.4651C326.386 44.4706 326.377 44.4736 326.367 44.4737V44.4727Z" fill="#090814"/>
<path d="M354.25 66.0789H337.182C336.603 66.0782 336.048 65.8483 335.639 65.4397C335.23 65.031 334.999 64.4769 334.999 63.8989V43.882C334.999 43.304 335.23 42.7499 335.639 42.3413C336.048 41.9326 336.603 41.7027 337.182 41.702H353.061L356.433 44.3863V63.8994C356.432 64.4774 356.202 65.0314 355.793 65.44C355.383 65.8486 354.828 66.0783 354.25 66.0789Z" fill="#090814"/>
<path d="M337.182 42.3297C336.77 42.3302 336.374 42.4939 336.083 42.7849C335.792 43.0759 335.628 43.4704 335.627 43.882V63.8989C335.628 64.3105 335.792 64.705 336.083 64.996C336.374 65.287 336.77 65.4507 337.182 65.4513H354.25C354.662 65.4507 355.057 65.287 355.348 64.996C355.64 64.705 355.804 64.3105 355.804 63.8989V44.6883L352.841 42.3297H337.182Z" fill="white"/>
<path d="M350.928 48.1495H343.159C343.063 48.1495 342.97 48.1113 342.902 48.0432C342.834 47.9751 342.796 47.8828 342.796 47.7865C342.796 47.6902 342.834 47.5979 342.902 47.5298C342.97 47.4618 343.063 47.4235 343.159 47.4235H350.928C351.025 47.4235 351.117 47.4618 351.185 47.5298C351.253 47.5979 351.292 47.6902 351.292 47.7865C351.292 47.8828 351.253 47.9751 351.185 48.0432C351.117 48.1113 351.025 48.1495 350.928 48.1495Z" fill="#6C63FF"/>
<path d="M352.428 49.3753H343.159C343.063 49.3753 342.97 49.337 342.902 49.269C342.834 49.2009 342.796 49.1085 342.796 49.0123C342.796 48.916 342.834 48.8237 342.902 48.7556C342.97 48.6875 343.063 48.6493 343.159 48.6493H352.428C352.525 48.6493 352.617 48.6875 352.685 48.7556C352.753 48.8237 352.792 48.916 352.792 49.0123C352.792 49.1085 352.753 49.2009 352.685 49.269C352.617 49.337 352.525 49.3753 352.428 49.3753Z" fill="#6C63FF"/>
<path d="M350.93 52.9153H343.159C343.063 52.9153 342.97 52.9536 342.902 53.0217C342.834 53.0897 342.796 53.1821 342.796 53.2783C342.796 53.3746 342.834 53.4669 342.902 53.535C342.97 53.6031 343.063 53.6413 343.159 53.6413H350.93C351.026 53.6413 351.119 53.6031 351.187 53.535C351.255 53.4669 351.293 53.3746 351.293 53.2783C351.293 53.1821 351.255 53.0897 351.187 53.0217C351.119 52.9536 351.026 52.9153 350.93 52.9153Z" fill="#CCCCCC"/>
<path d="M352.43 54.1406H343.16C343.063 54.1406 342.971 54.1789 342.903 54.2469C342.835 54.315 342.796 54.4073 342.796 54.5036C342.796 54.5999 342.835 54.6922 342.903 54.7603C342.971 54.8284 343.063 54.8666 343.16 54.8666H352.43C352.526 54.8666 352.619 54.8284 352.687 54.7603C352.755 54.6922 352.793 54.5999 352.793 54.5036C352.793 54.4073 352.755 54.315 352.687 54.2469C352.619 54.1789 352.526 54.1406 352.43 54.1406Z" fill="#CCCCCC"/>
<path d="M350.928 59.1311H343.159C343.063 59.1311 342.97 59.0928 342.902 59.0248C342.834 58.9567 342.796 58.8643 342.796 58.7681C342.796 58.6718 342.834 58.5795 342.902 58.5114C342.97 58.4433 343.063 58.4051 343.159 58.4051H350.928C351.025 58.4051 351.117 58.4433 351.185 58.5114C351.253 58.5795 351.292 58.6718 351.292 58.7681C351.292 58.8643 351.253 58.9567 351.185 59.0248C351.117 59.0928 351.025 59.1311 350.928 59.1311Z" fill="#CCCCCC"/>
<path d="M352.428 60.3574H343.159C343.063 60.3574 342.97 60.3192 342.902 60.2511C342.834 60.183 342.796 60.0907 342.796 59.9944C342.796 59.8981 342.834 59.8058 342.902 59.7377C342.97 59.6697 343.063 59.6314 343.159 59.6314H352.428C352.525 59.6314 352.617 59.6697 352.685 59.7377C352.753 59.8058 352.792 59.8981 352.792 59.9944C352.792 60.0907 352.753 60.183 352.685 60.2511C352.617 60.3192 352.525 60.3574 352.428 60.3574Z" fill="#CCCCCC"/>
<path d="M339.923 49.6824C340.633 49.6824 341.208 49.1079 341.208 48.3992C341.208 47.6905 340.633 47.116 339.923 47.116C339.213 47.116 338.638 47.6905 338.638 48.3992C338.638 49.1079 339.213 49.6824 339.923 49.6824Z" fill="#6C63FF"/>
<path d="M341.34 53.8904C341.34 54.0589 341.307 54.2258 341.243 54.3815C341.178 54.5372 341.084 54.6787 340.964 54.7979C340.845 54.9171 340.703 55.0117 340.547 55.0763C340.392 55.1408 340.224 55.1741 340.056 55.1741C340.045 55.1748 340.034 55.1748 340.023 55.1741C339.77 55.1676 339.525 55.0869 339.318 54.942C339.111 54.797 338.951 54.5944 338.859 54.3594C338.767 54.1243 338.746 53.8674 338.8 53.6206C338.853 53.3739 338.978 53.1484 339.159 52.9722C339.34 52.7961 339.569 52.6772 339.818 52.6304C340.066 52.5836 340.323 52.611 340.556 52.7092C340.788 52.8073 340.987 52.9719 341.127 53.1823C341.266 53.3927 341.341 53.6395 341.341 53.8919L341.34 53.8904Z" fill="#CCCCCC"/>
<path d="M339.923 60.665C340.633 60.665 341.208 60.0905 341.208 59.3818C341.208 58.6731 340.633 58.0986 339.923 58.0986C339.213 58.0986 338.638 58.6731 338.638 59.3818C338.638 60.0905 339.213 60.665 339.923 60.665Z" fill="#CCCCCC"/>
<path d="M356.367 44.4727H353.726C353.533 44.4727 353.348 44.3962 353.212 44.26C353.075 44.1239 352.999 43.9392 352.999 43.7467V41.7994C352.999 41.7909 353.001 41.7826 353.006 41.7755C353.01 41.7683 353.017 41.7625 353.025 41.7589C353.032 41.7552 353.041 41.7537 353.049 41.7546C353.058 41.7555 353.066 41.7587 353.072 41.764L356.395 44.3928C356.403 44.3986 356.408 44.4066 356.411 44.4156C356.413 44.4246 356.413 44.4342 356.41 44.4431C356.407 44.4519 356.401 44.4596 356.393 44.4651C356.386 44.4706 356.377 44.4736 356.367 44.4737V44.4727Z" fill="#090814"/>
</svg>
