<svg width="232" height="195" viewBox="0 0 232 195" fill="none" xmlns="http://www.w3.org/2000/svg">
<g clip-path="url(#clip0_32_199)">
<path d="M95.3178 111.939C96.4065 111.78 97.1997 111.038 97.0895 110.28C96.9793 109.522 96.0075 109.036 94.9188 109.194C93.8301 109.353 93.0369 110.096 93.1471 110.854C93.2573 111.612 94.2292 112.097 95.3178 111.939Z" fill="#E6E6E6"/>
<path d="M82.356 110.673C83.4447 110.515 84.2379 109.772 84.1277 109.014C84.0175 108.256 83.0457 107.77 81.957 107.929C80.8683 108.087 80.0751 108.83 80.1853 109.588C80.2955 110.346 81.2674 110.832 82.356 110.673Z" fill="#3F3D56"/>
<path d="M98.8672 101.438C99.9558 101.279 100.749 100.536 100.639 99.7785C100.529 99.0206 99.5568 98.5347 98.4681 98.6932C97.3795 98.8517 96.5862 99.5946 96.6964 100.352C96.8066 101.11 97.7785 101.596 98.8672 101.438Z" fill="#FF6584"/>
<path d="M103.214 97.3042C103.698 97.3006 104.085 96.7336 104.08 96.0378C104.075 95.342 103.679 94.781 103.195 94.7846C102.711 94.7883 102.323 95.3553 102.329 96.0511C102.334 96.7468 102.73 97.3079 103.214 97.3042Z" fill="#E6E6E6"/>
<path d="M105.124 89.2924C105.608 89.2887 105.995 88.7217 105.99 88.026C105.985 87.3302 105.589 86.7691 105.105 86.7728C104.621 86.7765 104.233 87.3434 104.239 88.0392C104.244 88.735 104.64 89.296 105.124 89.2924Z" fill="#3F3D56"/>
<path d="M90.2711 103.393C90.7548 103.389 91.1426 102.822 91.1373 102.126C91.1321 101.431 90.7357 100.869 90.2521 100.873C89.7684 100.877 89.3806 101.444 89.3858 102.14C89.3911 102.835 89.7875 103.396 90.2711 103.393Z" fill="#E6E6E6"/>
<path d="M96.5348 106.522C97.0185 106.519 97.4063 105.952 97.4011 105.256C97.3958 104.56 96.9994 103.999 96.5158 104.003C96.0321 104.006 95.6443 104.573 95.6496 105.269C95.6548 105.965 96.0512 106.526 96.5348 106.522Z" fill="#FF6584"/>
<path d="M87.8155 112.307C88.2992 112.303 88.687 111.736 88.6818 111.04C88.6765 110.345 88.2801 109.784 87.7965 109.787C87.3128 109.791 86.925 110.358 86.9303 111.054C86.9355 111.749 87.3319 112.311 87.8155 112.307Z" fill="#3F3D56"/>
<path d="M54.6075 119.646C55.679 119.397 56.4067 118.589 56.233 117.844C56.0593 117.098 55.05 116.696 53.9785 116.945C52.9071 117.195 52.1794 118.002 52.3531 118.748C52.5268 119.494 53.5361 119.896 54.6075 119.646Z" fill="#E6E6E6"/>
<path d="M67.6298 119.813C68.7013 119.563 69.429 118.756 69.2553 118.01C69.0816 117.264 68.0723 116.862 67.0008 117.112C65.9294 117.362 65.2017 118.169 65.3754 118.915C65.549 119.661 66.5584 120.063 67.6298 119.813Z" fill="#3F3D56"/>
<path d="M51.9562 130.41C53.0277 130.16 53.7554 129.353 53.5817 128.607C53.408 127.861 52.3987 127.459 51.3272 127.709C50.2558 127.959 49.5281 128.766 49.7018 129.512C49.8754 130.258 50.8848 130.66 51.9562 130.41Z" fill="#FF6584"/>
<path d="M47.5759 134.704C48.0575 134.659 48.3961 134.061 48.3322 133.369C48.2683 132.676 47.8261 132.15 47.3445 132.195C46.8628 132.239 46.5242 132.837 46.5881 133.53C46.652 134.223 47.0942 134.748 47.5759 134.704Z" fill="#E6E6E6"/>
<path d="M46.3482 142.848C46.8298 142.804 47.1684 142.206 47.1045 141.513C47.0406 140.82 46.5984 140.295 46.1168 140.339C45.6351 140.384 45.2965 140.981 45.3604 141.674C45.4243 142.367 45.8665 142.893 46.3482 142.848Z" fill="#3F3D56"/>
<path d="M59.9592 127.544C60.4408 127.5 60.7794 126.902 60.7155 126.209C60.6516 125.516 60.2094 124.991 59.7278 125.035C59.2461 125.08 58.9075 125.677 58.9714 126.37C59.0353 127.063 59.4775 127.589 59.9592 127.544Z" fill="#E6E6E6"/>
<path d="M53.454 124.954C53.9356 124.91 54.2742 124.312 54.2103 123.619C54.1464 122.927 53.7042 122.401 53.2226 122.445C52.7409 122.49 52.4023 123.088 52.4662 123.78C52.5301 124.473 52.9723 124.999 53.454 124.954Z" fill="#FF6584"/>
<path d="M61.6545 118.454C62.1361 118.41 62.4747 117.812 62.4108 117.119C62.3469 116.427 61.9047 115.901 61.4231 115.945C60.9414 115.99 60.6028 116.588 60.6667 117.28C60.7306 117.973 61.1728 118.499 61.6545 118.454Z" fill="#3F3D56"/>
<path d="M42.7783 183.705L39.3715 176.5L39.3511 176.515V167.15H36.2868V176.515L36.2665 176.5L32.8597 183.91C32.8146 183.989 32.8003 184.082 32.8195 184.171C32.8386 184.26 32.89 184.339 32.9636 184.392C33.0372 184.446 33.128 184.47 33.2185 184.461C33.309 184.452 33.3929 184.409 33.4541 184.342L36.9387 180.261L37.5027 183.977C37.5127 184.067 37.5557 184.151 37.6235 184.212C37.6913 184.272 37.7791 184.306 37.8701 184.306C37.961 184.306 38.0488 184.272 38.1166 184.212C38.1844 184.151 38.2274 184.067 38.2374 183.977L38.7952 180.302L42.1838 184.137C42.2451 184.205 42.329 184.247 42.4195 184.256C42.51 184.266 42.6008 184.241 42.6744 184.188C42.748 184.134 42.7993 184.055 42.8185 183.966C42.8377 183.877 42.8234 183.784 42.7783 183.705Z" fill="#2F2E41"/>
<path d="M18.442 156.644C17.8995 160.236 25.7502 166.551 37.3242 168.301C48.8983 170.052 60.19 167.523 60.7326 163.931C61.2751 160.339 52.2774 156.67 40.7034 154.92C29.1294 153.169 18.9846 153.052 18.442 156.644Z" fill="#6C63FF"/>
<path opacity="0.3" d="M18.442 156.644C17.8995 160.236 25.7502 166.551 37.3242 168.301C48.8983 170.052 60.19 167.523 60.7326 163.931C61.2751 160.339 52.2774 156.67 40.7034 154.92C29.1294 153.169 18.9846 153.052 18.442 156.644Z" fill="black"/>
<path d="M18.898 156.118C18.4512 159.077 26.1121 164.154 37.6862 165.905C49.2602 167.656 60.404 166.405 60.8509 163.446C61.2977 160.488 52.2774 156.67 40.7034 154.92C29.1294 153.169 19.3449 153.16 18.898 156.118Z" fill="#6C63FF"/>
<path d="M165.807 47.9058H1.84522C1.356 47.9064 0.88697 48.1011 0.54104 48.4473C0.19511 48.7934 0.000530322 49.2628 -7.62939e-06 49.7524V182.705C0.00105019 183.195 0.195798 183.664 0.541615 184.01C0.887433 184.356 1.35616 184.551 1.84522 184.552H165.807C166.296 184.551 166.765 184.357 167.111 184.01C167.457 183.664 167.651 183.195 167.652 182.705V49.7524C167.651 49.2628 167.457 48.7934 167.111 48.4473C166.765 48.1011 166.296 47.9064 165.807 47.9058ZM167.125 182.705C167.125 183.055 166.986 183.39 166.738 183.638C166.491 183.885 166.156 184.024 165.807 184.024H1.84522C1.4957 184.024 1.16053 183.885 0.913378 183.638C0.666229 183.39 0.527326 183.055 0.527199 182.705V49.7524C0.527774 49.4028 0.666821 49.0676 0.913872 48.8204C1.16092 48.5731 1.49583 48.434 1.84522 48.4334H165.807C166.156 48.434 166.491 48.5731 166.738 48.8204C166.985 49.0676 167.124 49.4028 167.125 49.7524V182.705ZM-7.62939e-06 79.9464V83.8769C0.0658933 83.8822 0.134433 83.8822 0.200334 83.8849L0.0685319 91.4399L-7.62939e-06 91.403V92.1469L0.0553509 92.176L-7.62939e-06 95.3441V106.265H0.527199V78.1658C0.379581 78.7356 0.203846 79.3291 -7.62939e-06 79.9464Z" fill="#3F3D56"/>
<path d="M157.464 135.706C150.151 135.706 143.079 133.092 137.522 128.336C135.668 126.748 133.693 123.988 131.651 120.131C130.348 117.647 129.618 114.902 129.515 112.099C129.412 109.295 129.939 106.504 131.056 103.931C129.979 105.027 128.788 106.005 127.503 106.848L126.853 107.28L126.816 106.501C126.791 105.994 126.779 105.488 126.779 104.999C126.779 102.114 128.959 99.1864 127.953 96.5198C123.715 85.2806 110.272 74.1111 129.755 56.7169C131.557 55.1078 129.15 51.8907 129.15 49.4562C129.15 25.5977 162.846 -15.6784 172.396 6.18738C184.173 33.1534 204.464 30.2691 213.454 35.8389L213.584 36.2329L213.2 36.3885C211.232 37.2159 209.16 37.7675 207.042 38.0275C209.3 38.4883 211.605 38.6815 213.908 38.6031L214.265 38.5906L214.352 38.938C215.209 42.3783 215.642 45.9107 215.642 49.4562L215.64 49.8395C215.632 52.5325 216.191 55.197 217.281 57.6593C218.371 60.1215 219.968 62.3262 221.966 64.1296C225.123 67.0101 227.646 70.5171 229.373 74.4273C231.101 78.3374 231.996 82.5648 232 86.84C232 91.898 228.565 98.5374 225.683 103.217C224.953 104.408 223.962 105.419 222.786 106.173C221.609 106.928 220.277 107.405 218.89 107.571C217.576 107.737 216.242 107.611 214.981 107.204C213.721 106.797 212.565 106.117 211.597 105.213C212.961 107.958 214.738 110.476 216.867 112.68L217.26 113.086L216.772 113.37C212.08 116.108 206.746 117.549 201.315 117.547L200.997 117.546C192.752 117.546 184.926 120.743 179.525 126.317C176.658 129.273 173.229 131.626 169.441 133.238C165.652 134.851 161.58 135.69 157.464 135.706Z" fill="#E6E6E6"/>
<path d="M146.907 184.335C146.774 184.335 146.646 184.287 146.545 184.199C146.445 184.112 146.38 183.992 146.361 183.86C146.338 183.696 144.041 167.122 146.104 145.094C148.008 124.751 154.125 95.4502 172.448 71.3858C172.492 71.3279 172.547 71.2793 172.609 71.2427C172.672 71.206 172.741 71.1821 172.813 71.1723C172.885 71.1625 172.958 71.167 173.028 71.1856C173.099 71.2041 173.164 71.2363 173.222 71.2803C173.28 71.3243 173.328 71.3793 173.365 71.4421C173.401 71.5049 173.425 71.5742 173.435 71.6462C173.444 71.7182 173.44 71.7914 173.421 71.8616C173.402 71.9317 173.37 71.9975 173.326 72.0552C155.161 95.9118 149.094 124.998 147.202 145.197C145.152 167.096 147.43 183.541 147.454 183.705C147.465 183.783 147.459 183.863 147.436 183.939C147.414 184.015 147.376 184.085 147.324 184.145C147.272 184.204 147.208 184.252 147.136 184.285C147.064 184.318 146.986 184.335 146.907 184.335Z" fill="#3F3D56"/>
<path d="M161.859 105.33C161.743 105.33 161.629 105.293 161.535 105.224C161.441 105.156 161.37 105.059 161.334 104.948C161.298 104.837 161.298 104.718 161.334 104.607C161.37 104.496 161.44 104.399 161.535 104.331C161.601 104.282 168.304 99.4491 178.325 95.7772C187.589 92.3832 201.676 89.3064 216.178 93.9253C216.317 93.9697 216.433 94.0677 216.501 94.1978C216.568 94.3278 216.581 94.4793 216.536 94.6189C216.492 94.7584 216.394 94.8746 216.264 94.9419C216.134 95.0092 215.983 95.022 215.843 94.9776C201.638 90.4536 187.807 93.4796 178.705 96.8144C168.827 100.434 162.249 105.177 162.183 105.224C162.089 105.293 161.976 105.33 161.859 105.33Z" fill="#3F3D56"/>
<path d="M136.603 42.3796C136.594 42.2633 136.623 42.1472 136.684 42.0481C136.746 41.949 136.837 41.8719 136.945 41.828C137.053 41.784 137.172 41.7753 137.285 41.8032C137.399 41.8312 137.5 41.8942 137.575 41.9834C137.628 42.0463 142.928 48.3888 147.31 58.1267C151.359 67.1286 155.44 80.9675 151.881 95.7751C151.864 95.8456 151.834 95.9121 151.791 95.9708C151.748 96.0294 151.695 96.0791 151.633 96.1169C151.571 96.1548 151.502 96.1801 151.431 96.1914C151.359 96.2027 151.286 96.1998 151.216 96.1829C151.145 96.1659 151.079 96.1352 151.02 96.0926C150.962 96.0499 150.912 95.9962 150.874 95.9343C150.836 95.8725 150.811 95.8038 150.8 95.7322C150.788 95.6605 150.791 95.5874 150.808 95.5169C154.294 81.0126 150.282 67.425 146.303 58.5801C141.984 48.9812 136.783 42.7571 136.731 42.6954C136.656 42.6064 136.611 42.4958 136.603 42.3796Z" fill="#3F3D56"/>
<path d="M143.57 166.533L142.932 169.276C142.932 169.276 142.926 171.805 142.478 172.271C142.033 172.735 132.26 171.803 132.26 171.803C132.26 171.803 133.296 167.728 133.283 164.644L143.57 166.533Z" fill="#FFB6B6"/>
<path d="M105.874 191.563L104.192 190.35L108.11 183.105L110.592 184.897L105.874 191.563Z" fill="#FFB6B6"/>
<path d="M104.347 193.843L103.221 192.773L104.029 191.517L102.504 192.093L99.5157 189.255C99.3725 189.119 99.2764 188.941 99.2416 188.746C99.2067 188.552 99.2349 188.351 99.322 188.174C99.4092 187.997 99.5507 187.852 99.7259 187.761C99.9011 187.669 100.101 187.637 100.296 187.667L104.246 188.284L105.267 187.208L107.635 189.741L104.347 193.843Z" fill="#2F2E41"/>
<path d="M106.879 184.736L109.923 186.1C113.075 182.763 116.248 178.476 118.236 171.467C122.776 177.35 126.776 180.681 132.207 183.602C134.04 184.596 140.674 184.952 141.706 183.092C141.754 183.005 141.799 182.916 141.84 182.825C142.789 180.734 141.95 175.289 142.487 172.522C140.526 168.921 135.743 171.83 132.47 170.412L128.809 172.004L122.018 163.924C121.687 163.537 121.282 163.22 120.828 162.991C120.373 162.761 119.878 162.624 119.37 162.587C118.862 162.55 118.352 162.614 117.869 162.775C117.386 162.937 116.94 163.192 116.556 163.526C116.469 163.601 116.385 163.678 116.305 163.76C114.936 166.084 113.628 168.368 112.434 170.578C112.049 171.291 110.836 172.25 111.316 172.694C111.796 173.137 110.572 174.155 110.225 174.87C108.09 179.268 107.197 181.518 106.879 184.736Z" fill="#2F2E41"/>
<path d="M127.151 173.132C127.388 173.118 127.618 173.052 127.826 172.939C128.034 172.826 128.215 172.669 128.356 172.479C128.497 172.288 128.594 172.069 128.641 171.837C128.689 171.605 128.684 171.365 128.629 171.135L139.076 163.288L136.343 162.074L126.559 169.951C126.178 170.07 125.854 170.324 125.649 170.666C125.443 171.008 125.37 171.413 125.443 171.805C125.516 172.197 125.73 172.549 126.045 172.793C126.36 173.038 126.754 173.158 127.151 173.132Z" fill="#FFB6B6"/>
<path d="M139.135 151.799C139.135 151.799 141.128 151.234 141.999 153.44C142.87 155.646 140.272 162.567 139.887 163.695C139.501 164.823 132.421 168.247 132.421 168.247L129.331 167.189C131.455 164.651 133.471 162.586 135.115 162.145L139.135 151.799Z" fill="#6C63FF"/>
<path d="M144.99 149.168L140.959 148.929C140.789 148.919 140.621 148.963 140.476 149.053C140.332 149.144 140.22 149.277 140.155 149.435L139.016 152.198L134.282 156.113C134.282 156.113 132.408 158.5 132.403 161.583C132.399 164.665 132.47 170.412 132.47 170.412C132.47 170.412 134.474 167.947 136.162 168.971C136.449 169.146 136.55 169.502 136.851 169.683C137.001 169.772 137.348 169.685 137.5 169.775C139.826 171.157 142.252 172.507 142.479 172.271C142.679 172.062 143.442 171.31 143.078 170.88C142.714 170.45 143.464 169.43 143.464 169.43L147.154 155.865C147.354 155.151 147.393 154.402 147.27 153.671C147.146 152.94 146.863 152.246 146.44 151.637C146.182 151.274 145.912 151.004 145.661 150.959C145.097 150.839 145.397 149.576 144.99 149.168Z" fill="#6C63FF"/>
<path d="M96.6028 192.51L95.8373 190.583L103.066 186.646L104.195 189.49L96.6028 192.51Z" fill="#FFB6B6"/>
<path d="M99.0823 188.297L99.9894 191.759C106.133 190.16 112.463 186.403 118.882 181.626C125.967 183.82 132.687 185.134 138.797 184.393C139.81 184.259 140.732 183.736 141.367 182.934C142.002 182.132 142.299 181.114 142.197 180.096C142.187 179.997 142.172 179.899 142.154 179.801C141.728 177.544 138.171 175.563 137.021 172.992L129.459 174.794L128.897 176.248L127.194 175.798L125.757 175.418L124.111 174.982L118.715 173.556C118.222 173.431 117.709 173.405 117.206 173.479C116.703 173.554 116.22 173.727 115.784 173.99C115.348 174.252 114.969 174.598 114.667 175.008C114.366 175.418 114.148 175.883 114.028 176.378C113.999 176.489 113.975 176.601 113.956 176.714L106.483 182.534C106.483 182.534 105.817 184.094 105.304 183.452C104.792 182.81 103.832 184.599 103.832 184.599L99.0823 188.297Z" fill="#2F2E41"/>
<path d="M92.9898 195L92.416 193.556L93.6763 192.756L92.0512 192.637L90.5293 188.806C90.4563 188.623 90.4439 188.42 90.4939 188.229C90.5439 188.038 90.6536 187.868 90.8071 187.744C90.9606 187.619 91.1498 187.547 91.347 187.538C91.5443 187.529 91.7393 187.583 91.9036 187.693L95.2304 189.912L96.6081 189.364L97.6946 192.658L92.9898 195Z" fill="#2F2E41"/>
<path d="M148.447 139.482C148.816 139.796 149.254 140.016 149.726 140.125C150.203 140.195 150.761 139.965 150.893 139.501C151.055 138.933 150.543 138.417 150.083 138.048L148.623 136.879C148.356 136.641 148.055 136.446 147.729 136.3C147.565 136.228 147.388 136.193 147.209 136.199C147.03 136.205 146.855 136.251 146.697 136.334C146.54 136.44 146.413 136.585 146.328 136.754C146.242 136.923 146.202 137.111 146.21 137.3C146.23 137.679 146.355 138.045 146.571 138.358C146.842 138.78 147.195 139.144 147.61 139.426C148.025 139.708 148.493 139.903 148.985 140" fill="#2F2E41"/>
<path d="M147.798 136.521C147.756 135.463 148.883 134.625 149.939 134.691C150.995 134.757 151.902 135.5 152.501 136.374C153.1 137.246 153.46 138.257 153.931 139.204C154.403 140.151 155.031 141.079 155.968 141.57C156.905 142.06 158.209 141.972 158.857 141.136C159.058 141.441 159.185 141.79 159.227 142.154C159.268 142.517 159.223 142.886 159.096 143.229C158.831 143.916 158.337 144.49 157.697 144.854C157.442 145.005 157.17 145.125 156.886 145.211C156.77 144.895 156.605 144.599 156.399 144.333C156.492 144.648 156.527 144.977 156.504 145.304C156.067 145.388 155.617 145.381 155.183 145.284C154.757 145.188 154.359 144.995 154.02 144.718C153.682 144.442 153.412 144.091 153.233 143.692C152.837 142.754 153.039 141.684 152.954 140.669C152.87 139.654 152.259 138.495 151.241 138.479C150.466 138.466 150.568 138.53 150.077 139.13" fill="#2F2E41"/>
<path d="M140.76 142.082C140.76 142.684 140.879 143.281 141.109 143.837C141.339 144.394 141.677 144.899 142.103 145.325C142.528 145.751 143.034 146.089 143.59 146.32C144.146 146.55 144.742 146.669 145.344 146.669C147.876 146.669 150.281 143.733 150.281 141.199C150.281 138.666 147.876 137.494 145.344 137.494C144.128 137.494 142.962 137.978 142.103 138.838C141.243 139.698 140.76 140.865 140.76 142.082Z" fill="#2F2E41"/>
<path d="M143.962 147.668C146.377 147.668 148.335 145.708 148.335 143.291C148.335 140.874 146.377 138.915 143.962 138.915C141.547 138.915 139.589 140.874 139.589 143.291C139.589 145.708 141.547 147.668 143.962 147.668Z" fill="#FFB6B6"/>
<path d="M138.468 142.611C139.763 142.965 141.07 143.336 141.575 142.611C141.673 142.131 141.859 141.672 142.123 141.259C142.173 141.722 142.281 142.176 142.446 142.611C142.896 142.678 143.35 142.712 143.805 142.713C143.99 143.033 144.837 143.561 144.867 143.944C144.932 143.903 145.001 143.867 145.071 143.836C145.113 143.813 145.16 143.798 145.208 143.794C145.256 143.79 145.304 143.796 145.35 143.812C145.381 143.831 145.408 143.857 145.428 143.887C145.448 143.918 145.46 143.953 145.465 143.99C145.473 144.063 145.47 144.138 145.454 144.21C145.436 144.463 145.36 144.708 145.234 144.927C145.184 145.002 145.118 145.066 145.042 145.115C144.966 145.164 144.881 145.197 144.791 145.211C144.608 146.243 144.202 147.638 144.202 147.638C148.61 147.815 149.928 144.559 149.928 141.729L149.399 140.67H147.636V138.377H142.7C141.577 138.377 140.501 138.823 139.708 139.617C138.914 140.411 138.468 141.488 138.468 142.611Z" fill="#2F2E41"/>
<path d="M129.8 164.531L136.475 165.036L137.268 168.235C137.268 168.235 129.476 166.69 129.242 166.599C128.97 166.777 128.65 166.867 128.325 166.859C128.001 166.851 127.686 166.744 127.423 166.552C127.16 166.361 126.962 166.094 126.853 165.788C126.745 165.481 126.733 165.149 126.818 164.835C126.902 164.521 127.08 164.24 127.328 164.029C127.576 163.819 127.881 163.688 128.205 163.656C128.528 163.623 128.854 163.689 129.139 163.845C129.424 164.002 129.654 164.241 129.8 164.531Z" fill="#FFB6B6"/>
<path d="M145.167 153.375C145.544 151.955 141.498 159.886 143.262 167.048C143.126 167.542 142.889 168.002 142.565 168.398C142.242 168.795 141.839 169.12 141.383 169.352C140.927 169.585 140.427 169.719 139.916 169.747C139.405 169.775 138.894 169.696 138.415 169.515L133.397 167.528L134.909 164.444L137.284 164.558L139.702 158.139L141.994 154.787L145.167 153.375Z" fill="#6C63FF"/>
<path d="M128.804 171.736L122.688 166.568C122.479 166.391 122.349 166.138 122.326 165.865C122.303 165.592 122.389 165.321 122.565 165.111L123.691 163.778C123.868 163.568 124.12 163.438 124.393 163.415C124.666 163.392 124.937 163.478 125.147 163.655L131.262 168.823C131.471 169 131.602 169.253 131.625 169.526C131.648 169.799 131.561 170.07 131.385 170.28L130.259 171.614C130.082 171.823 129.83 171.953 129.557 171.976C129.284 171.999 129.013 171.913 128.804 171.736Z" fill="#3F3D56"/>
<path d="M123.009 165.219C122.914 165.332 122.867 165.478 122.88 165.625C122.892 165.772 122.962 165.909 123.075 166.004L129.191 171.172C129.304 171.268 129.45 171.314 129.597 171.302C129.744 171.289 129.88 171.219 129.975 171.106L131.101 169.772C131.196 169.659 131.242 169.513 131.23 169.366C131.217 169.219 131.147 169.083 131.035 168.987L124.919 163.819C124.806 163.724 124.66 163.677 124.513 163.69C124.366 163.702 124.23 163.772 124.135 163.885L123.009 165.219Z" fill="white"/>
<path d="M126.599 167.228C126.578 167.258 126.55 167.282 126.518 167.299C126.486 167.316 126.45 167.326 126.413 167.327L125.452 167.349C125.421 167.349 125.391 167.344 125.362 167.333C125.333 167.322 125.306 167.305 125.284 167.284C125.261 167.263 125.243 167.237 125.231 167.209C125.218 167.18 125.211 167.15 125.211 167.119C125.21 167.088 125.215 167.057 125.227 167.028C125.238 166.999 125.255 166.973 125.276 166.95C125.298 166.928 125.323 166.91 125.352 166.898C125.38 166.885 125.411 166.879 125.442 166.878L126.07 166.864L125.451 165.229C125.44 165.2 125.435 165.169 125.436 165.138C125.437 165.107 125.444 165.077 125.457 165.049C125.469 165.021 125.487 164.995 125.51 164.974C125.532 164.953 125.559 164.936 125.588 164.925C125.617 164.915 125.647 164.909 125.678 164.91C125.709 164.911 125.739 164.918 125.768 164.931C125.796 164.944 125.821 164.962 125.842 164.984C125.863 165.007 125.88 165.033 125.891 165.062L126.628 167.008C126.641 167.043 126.646 167.081 126.642 167.118C126.637 167.156 126.624 167.192 126.603 167.223L126.599 167.228Z" fill="#6C63FF"/>
</g>
<defs>
<clipPath id="clip0_32_199">
<rect width="232" height="195" fill="white"/>
</clipPath>
</defs>
</svg>
