<svg width="29" height="28" viewBox="0 0 29 28" fill="none" xmlns="http://www.w3.org/2000/svg">
<path d="M28.013 14C28.013 10.287 26.538 6.72602 23.9124 4.10051C21.2869 1.475 17.726 5.97679e-06 14.013 5.97679e-06C10.4876 -0.00324959 7.09087 1.32359 4.50115 3.71548C1.91142 6.10738 0.319402 9.38824 0.0430943 12.9027C-0.233214 16.4172 0.826531 19.9065 3.01065 22.6737C5.19476 25.4409 8.34245 27.2823 11.825 27.83V18.046H8.27295V14H11.827V10.916C11.827 7.40801 13.917 5.46801 17.115 5.46801C18.647 5.46801 20.249 5.74201 20.249 5.74201V9.18801H18.483C16.743 9.18801 16.203 10.268 16.203 11.374V14H20.085L19.465 18.046H16.201V27.83C19.494 27.3085 22.4928 25.6292 24.6581 23.0939C26.8234 20.5587 28.013 17.3341 28.013 14Z" fill="black"/>
</svg>
