<svg width="23" height="19" viewBox="0 0 23 19" fill="none" xmlns="http://www.w3.org/2000/svg">
<path d="M3.5 18.5H19.5C20.2956 18.5 21.0587 18.1839 21.6213 17.6213C22.1839 17.0587 22.5 16.2956 22.5 15.5V3.5C22.5 2.70435 22.1839 1.94129 21.6213 1.37868C21.0587 0.816071 20.2956 0.5 19.5 0.5H3.5C2.70435 0.5 1.94129 0.816071 1.37868 1.37868C0.81607 1.94129 0.5 2.70435 0.5 3.5V15.5C0.5 16.2956 0.81607 17.0587 1.37868 17.6213C1.94129 18.1839 2.70435 18.5 3.5 18.5ZM2.5 3.5C2.5 3.23478 2.60536 2.98043 2.79289 2.79289C2.98043 2.60536 3.23478 2.5 3.5 2.5H19.5C19.7652 2.5 20.0196 2.60536 20.2071 2.79289C20.3946 2.98043 20.5 3.23478 20.5 3.5V15.5C20.5 15.7652 20.3946 16.0196 20.2071 16.2071C20.0196 16.3946 19.7652 16.5 19.5 16.5H3.5C3.23478 16.5 2.98043 16.3946 2.79289 16.2071C2.60536 16.0196 2.5 15.7652 2.5 15.5V3.5ZM4.5 13.5C4.5 13.2348 4.60536 12.9804 4.79289 12.7929C4.98043 12.6054 5.23478 12.5 5.5 12.5H8.5C8.76522 12.5 9.01957 12.6054 9.20711 12.7929C9.39464 12.9804 9.5 13.2348 9.5 13.5C9.5 13.7652 9.39464 14.0196 9.20711 14.2071C9.01957 14.3946 8.76522 14.5 8.5 14.5H5.5C5.23478 14.5 4.98043 14.3946 4.79289 14.2071C4.60536 14.0196 4.5 13.7652 4.5 13.5ZM4.5 10.5C4.5 10.2348 4.60536 9.98043 4.79289 9.79289C4.98043 9.60536 5.23478 9.5 5.5 9.5H11.5C11.7652 9.5 12.0196 9.60536 12.2071 9.79289C12.3946 9.98043 12.5 10.2348 12.5 10.5C12.5 10.7652 12.3946 11.0196 12.2071 11.2071C12.0196 11.3946 11.7652 11.5 11.5 11.5H5.5C5.23478 11.5 4.98043 11.3946 4.79289 11.2071C4.60536 11.0196 4.5 10.7652 4.5 10.5Z" fill="white" stroke="white"/>
</svg>
