<svg width="24" height="28" viewBox="0 0 24 28" fill="none" xmlns="http://www.w3.org/2000/svg">
<path d="M23.6947 20.9999C23.883 20.6617 24 20.2807 24 19.9385V8.0613C24 7.71913 23.8831 7.33818 23.6947 7L12 14L23.6947 20.9999Z" fill="#7F3A86"/>
<path d="M13.0395 27.7433L22.9611 21.8047C23.2469 21.6336 23.5067 21.3382 23.695 21L12.0003 14L0.305664 21C0.493984 21.3382 0.753824 21.6337 1.03955 21.8047L10.9611 27.7433C11.5326 28.0855 12.468 28.0855 13.0395 27.7433Z" fill="#662579"/>
<path d="M23.6947 6.99996C23.5064 6.6617 23.2465 6.36629 22.9608 6.19521L13.0392 0.25662C12.4677 -0.08554 11.5323 -0.08554 10.9608 0.25662L1.03922 6.19521C0.46761 6.53729 0 7.37709 0 8.0613V19.9386C0 20.2807 0.11694 20.6618 0.30533 21L12 14L23.6947 6.99996Z" fill="#9A5196"/>
<path d="M12.0385 22C7.6061 22 4 18.4112 4 14C4 9.5888 7.6061 6 12.0385 6C14.8458 6 17.4674 7.47569 18.919 9.8618L15.4765 11.9265C14.7492 10.736 13.4399 10 12.0385 10C9.8222 10 8.0193 11.7944 8.0193 14C8.0193 16.2056 9.8222 18 12.0385 18C13.4362 18 14.7421 17.2681 15.4707 16.0832L18.9205 18.1359C17.4692 20.5234 14.8467 22 12.0385 22Z" fill="white"/>
<path fill-rule="evenodd" clip-rule="evenodd" d="M21.0001 11V11.9974H18.9999V11H18.0001V11.9974H17V13H18.0001V14.9948H17V16H18.0001V17H18.9999L19 16H21.0001V17H21.9999V16H23V15H21.9999V13H23V11.9974H21.9999V11H21.0001ZM21.0001 15V13H18.9999V14.9948L21.0001 15Z" fill="white"/>
</svg>
