<svg width="21" height="21" viewBox="0 0 21 21" fill="none" xmlns="http://www.w3.org/2000/svg">
<path d="M0.43902 11.5599C-0.14634 10.9745 -0.14634 10.0255 0.43902 9.4401L9.4401 0.43902C10.0255 -0.14634 10.9745 -0.14634 11.5599 0.43902L20.561 9.4401C21.1463 10.0255 21.1463 10.9745 20.561 11.5599L11.5599 20.561C10.9745 21.1463 10.0255 21.1463 9.4401 20.561L0.43902 11.5599Z" fill="#EE513B"/>
<path d="M7.61167 2.29614L6.7002 3.20765L9.05437 5.56183C8.95912 5.76614 8.90595 5.99401 8.90595 6.2343C8.90595 6.9165 9.33457 7.49858 9.9372 7.7259V13.4848C9.33457 13.7122 8.90595 14.2943 8.90595 14.9764C8.90595 15.8566 9.6195 16.5702 10.4997 16.5702C11.3799 16.5702 12.0934 15.8566 12.0934 14.9764C12.0934 14.358 11.7412 13.8218 11.2263 13.5576V7.73378L13.4767 9.98415C13.3861 10.1843 13.3357 10.4066 13.3357 10.6406C13.3357 11.5208 14.0492 12.2343 14.9294 12.2343C15.8096 12.2343 16.5232 11.5208 16.5232 10.6406C16.5232 9.76035 15.8096 9.0468 14.9294 9.0468C14.7583 9.0468 14.5936 9.07372 14.4391 9.1236L12.0223 6.70673C12.0685 6.55748 12.0934 6.39878 12.0934 6.2343C12.0934 5.35408 11.3799 4.64053 10.4997 4.64053C10.3352 4.64053 10.1766 4.66546 10.0273 4.71173L7.61167 2.29614Z" fill="white"/>
</svg>
