<svg width="21" height="21" viewBox="0 0 21 21" fill="none" xmlns="http://www.w3.org/2000/svg">
<path d="M21 0H0V21H21V0Z" fill="#FFCA28"/>
<path d="M12.75 17.4659L14.2961 16.4428C14.4173 16.8235 15.1846 17.7276 16.1539 17.7276C17.1231 17.7276 17.5731 17.1982 17.5731 16.8472C17.5731 15.8908 16.5834 15.5537 16.108 15.3917C16.0305 15.3653 15.9668 15.3436 15.9231 15.3246C15.9007 15.3149 15.8669 15.3019 15.8234 15.2853C15.2948 15.0833 13.3442 14.3381 13.3442 12.178C13.3442 9.79875 15.6403 9.52515 16.1596 9.52515C16.4993 9.52515 18.1327 9.56677 18.9461 11.0954L17.4461 12.1424C17.1173 11.4761 16.571 11.2561 16.2347 11.2561C15.4039 11.2561 15.2308 11.8651 15.2308 12.1424C15.2308 12.9203 16.1334 13.2689 16.8955 13.5633C17.0949 13.6403 17.2846 13.7136 17.4461 13.79C18.2769 14.1825 19.5 14.8249 19.5 16.8472C19.5 17.8602 18.6504 19.5002 16.5115 19.5002C13.6384 19.5002 12.8769 17.7752 12.75 17.4659Z" fill="#3E3E3E"/>
<path d="M5.25 17.669L6.86152 16.6465C6.98775 17.027 7.47847 17.7285 8.19037 17.7285C8.90235 17.7285 9.26677 16.9973 9.26677 16.6465V9.75015H11.2486V16.6465C11.2807 17.5977 10.7532 19.5002 8.4249 19.5002C6.28425 19.5002 5.39432 18.2279 5.25 17.669Z" fill="#3E3E3E"/>
</svg>
