<svg width="18" height="24" viewBox="0 0 18 24" fill="none" xmlns="http://www.w3.org/2000/svg">
<path d="M9.03728 6.33047C13.9784 2.49455 11.4425 0 11.4425 0C11.8199 3.96554 7.35976 4.90187 6.16418 7.6269C5.34841 9.48637 6.72286 11.1145 9.03563 13.1666C8.83118 12.7121 8.51581 12.2704 8.19661 11.8234C7.10768 10.2985 5.97338 8.7099 9.03728 6.33047Z" fill="#E76F00"/>
<path d="M9.82614 14.0077C9.82614 14.0077 11.3126 12.8084 10.1354 11.4756C6.14484 6.95389 14.5 4.90187 14.5 4.90187C9.39879 7.35937 10.1603 8.81805 11.4425 10.5901C12.8153 12.4903 9.82614 14.0077 9.82614 14.0077Z" fill="#E76F00"/>
<path d="M14.2027 17.5842C18.7817 15.2443 16.6646 12.9958 15.1869 13.2988C14.8246 13.3729 14.6632 13.4371 14.6632 13.4371C14.6632 13.4371 14.7976 13.23 15.0544 13.1403C17.9779 12.1297 20.2261 16.1212 14.1107 17.7021C14.1107 17.7021 14.1816 17.6398 14.2027 17.5842Z" fill="#5382A1"/>
<path d="M4.67477 14.6227C1.80986 14.2465 6.24564 13.2104 6.24564 13.2104C6.24564 13.2104 4.52304 13.0962 2.40446 14.1032C-0.100656 15.2949 8.60109 15.8368 13.1055 14.6719C13.5738 14.3574 14.2211 14.0848 14.2211 14.0848C14.2211 14.0848 12.3778 14.4085 10.5421 14.5609C8.29592 14.7459 5.88444 14.782 4.67477 14.6227Z" fill="#5382A1"/>
<path d="M5.76483 16.8568C4.16721 16.6944 5.21328 15.9329 5.21328 15.9329C1.07926 17.2822 7.51338 18.8122 13.29 17.1511C12.6759 16.9383 12.2855 16.549 12.2855 16.549C9.46225 17.0836 7.83078 17.0665 5.76483 16.8568Z" fill="#5382A1"/>
<path d="M6.46086 19.2743C4.86449 19.0939 5.79711 18.5605 5.79711 18.5605C2.04444 19.5916 8.07966 21.7219 12.8575 19.7083C12.0749 19.409 11.5146 19.0636 11.5146 19.0636C9.38331 19.4602 8.39481 19.4913 6.46086 19.2743Z" fill="#5382A1"/>
<path d="M16.454 20.5041C16.454 20.5041 17.1442 21.0633 15.6939 21.4959C12.9361 22.3174 4.2157 22.5655 1.79321 21.5287C0.92238 21.1561 2.55542 20.6392 3.06911 20.5306C3.60484 20.4164 3.91099 20.4377 3.91099 20.4377C2.94255 19.7668 -2.34863 21.755 1.22333 22.3244C10.9646 23.8779 18.9808 21.6248 16.454 20.5041Z" fill="#5382A1"/>
<path d="M18 21.7259C17.8402 23.771 11.0908 24.2012 6.69555 23.9245C3.82824 23.7437 3.25359 23.2918 3.24518 23.2852C5.98942 23.7301 10.6162 23.8111 14.3676 23.1169C17.6927 22.5012 18 21.7259 18 21.7259Z" fill="#5382A1"/>
</svg>
