<svg width="21" height="21" viewBox="0 0 21 21" fill="none" xmlns="http://www.w3.org/2000/svg">
<path fill-rule="evenodd" clip-rule="evenodd" d="M12.3525 0C12.2084 0.00201388 12.0655 0.0273413 11.9295 0.0749999C13.1407 0.8715 11.712 2.025 12.3795 3C12.3335 2.67205 12.3857 2.33783 12.5294 2.03951C12.6732 1.74118 12.9021 1.49212 13.1872 1.32375C13.401 1.146 13.5382 1.08225 13.4925 0.78825C13.4182 0.30675 12.7762 0 12.3525 0ZM14.0775 0.3105C13.9102 1.15275 13.7025 1.1835 13.0852 1.72575C12.8445 1.91555 12.6746 2.18083 12.6029 2.47889C12.5312 2.77696 12.5619 3.09048 12.69 3.369C10.14 2.379 6.87149 1.7805 4.47524 3.4935C3.61349 4.10925 3.08774 4.9935 2.02499 5.35425C1.33799 5.58975 0.662992 5.52 0.232492 6.201C0.0750465 6.39764 -0.00720155 6.64394 0.00049512 6.89573C0.00819179 7.14752 0.10533 7.38834 0.274492 7.575C0.402742 7.70625 0.649492 7.79025 0.751492 7.92375C0.810742 7.99875 0.809242 8.07375 0.865492 8.1735C0.964901 8.40596 1.10857 8.61688 1.28849 8.7945C1.39874 8.88525 1.77749 8.97375 1.84199 9.0705C1.92299 9.19125 1.71299 9.6705 1.88924 9.7455C2.00774 9.80025 2.35499 9.1875 2.38874 9.1335C2.31974 9.61575 2.22899 10.4715 2.77124 9.759C3.02849 9.42075 3.04424 9.309 3.47699 9.234C3.75393 9.18589 4.03383 9.15682 4.31474 9.147C5.91952 9.09086 7.4847 9.65241 8.68776 10.7159C9.89083 11.7795 10.6401 13.264 10.7812 14.8635C10.7002 14.4885 10.2105 13.8885 9.75449 14.031C9.56024 14.091 9.48824 14.4262 9.36074 14.6205C9.19955 14.8668 9.00091 15.0864 8.77199 15.2715C8.81074 14.9079 8.79252 14.5405 8.71799 14.1825C8.58149 14.7435 8.30774 15.6742 7.61849 15.5235C7.38888 15.4884 7.17375 15.3896 6.99764 15.2381C6.82153 15.0867 6.69154 14.8888 6.62249 14.667C6.53324 14.097 7.13549 13.4287 6.16724 13.3815C4.22474 13.2862 4.67399 16.143 5.82074 16.8878C5.55719 16.9169 5.30011 16.9886 5.05949 17.1C5.78794 17.523 6.60873 17.7617 7.45044 17.7951C8.29215 17.8286 9.12929 17.6559 9.88902 17.292C10.6487 16.9281 11.308 16.384 11.8095 15.7072C12.311 15.0304 12.6396 14.2413 12.7665 13.4085C12.9334 14.1711 12.9296 14.9613 12.7552 15.7222C12.662 16.1266 12.5226 16.519 12.3397 16.8915C12.0918 17.3947 11.7624 17.8534 11.3647 18.249C11.1292 18.4823 10.6972 18.717 10.5487 18.9548C11.4577 18.8342 12.346 18.59 13.1887 18.2288C12.3163 19.4237 11.1544 20.3774 9.81224 21C11.2513 20.8982 12.6424 20.4398 13.8601 19.6661C15.0778 18.8924 16.0837 17.8278 16.7872 16.5682C16.563 17.8279 16.0651 19.0231 15.3285 20.0693C16.3192 19.406 17.1621 18.5451 17.8042 17.5406C18.4463 16.536 18.8737 15.4096 19.0597 14.232C19.2444 15.094 19.2973 15.9791 19.2165 16.857C20.0303 15.7262 20.5801 14.4272 20.8253 13.0557C21.0705 11.6843 21.0048 10.2752 20.6332 8.9325C20.349 7.88868 19.9228 6.88884 19.3665 5.961C19.1517 5.59947 18.9166 5.25041 18.6622 4.9155C18.5625 4.78575 18.0292 4.311 18.0292 4.1655C18.0247 4.18 18.021 4.18 18.018 4.1655C18.018 6.6015 15.393 8.16525 13.1947 7.51275C14.0306 7.44792 14.8207 7.10486 15.4387 6.53836C16.0567 5.97185 16.4671 5.21459 16.6042 4.3875C16.7257 3.51979 16.5395 2.63694 16.0779 1.8922C15.6164 1.14746 14.9086 0.587847 14.0775 0.3105Z" fill="#EA2845"/>
</svg>
