<svg width="17" height="22" viewBox="0 0 17 22" fill="none" xmlns="http://www.w3.org/2000/svg">
<path d="M1 2.5C1 2.10218 1.15804 1.72064 1.43934 1.43934C1.72064 1.15804 2.10218 1 2.5 1H14.5C14.8978 1 15.2794 1.15804 15.5607 1.43934C15.842 1.72064 16 2.10218 16 2.5V19C16 19.3978 15.842 19.7794 15.5607 20.0607C15.2794 20.342 14.8978 20.5 14.5 20.5H2.5C2.10218 20.5 1.72064 20.342 1.43934 20.0607C1.15804 19.7794 1 19.3978 1 19V2.5Z" stroke="white" stroke-width="2" stroke-linejoin="round"/>
<path d="M4 5.5H7M4 10.75H13M4 13.75H13M4 16.75H7" stroke="white" stroke-width="2" stroke-linecap="round" stroke-linejoin="round"/>
<path d="M13 6.25C13.4142 6.25 13.75 5.91421 13.75 5.5C13.75 5.08579 13.4142 4.75 13 4.75C12.5858 4.75 12.25 5.08579 12.25 5.5C12.25 5.91421 12.5858 6.25 13 6.25Z" fill="white"/>
</svg>
