<svg width="21" height="21" viewBox="0 0 21 21" fill="none" xmlns="http://www.w3.org/2000/svg">
<path d="M20.2594 2.21191L15.9349 0.129914C15.6906 0.0121621 15.4158 -0.0266959 15.1485 0.018726C14.8813 0.0641479 14.6347 0.1916 14.4431 0.383414L0.286853 13.2894C0.115096 13.4453 0.0122829 13.663 0.00103082 13.8946C-0.0102213 14.1263 0.0710089 14.3529 0.226853 14.5247C0.245603 14.5449 0.264353 14.5644 0.284603 14.5824L1.44035 15.6324C1.59138 15.7699 1.78577 15.8501 1.98978 15.8591C2.19378 15.8682 2.39451 15.8055 2.5571 15.6819L19.6084 2.75191C19.7371 2.65418 19.8907 2.59434 20.0516 2.57913C20.2126 2.56391 20.3746 2.59393 20.5194 2.66579C20.6642 2.73766 20.7861 2.84852 20.8714 2.98591C20.9566 3.12329 21.0018 3.28174 21.0019 3.44341V3.39316C21.0018 3.14634 20.9321 2.90453 20.8008 2.69556C20.6694 2.48659 20.4818 2.31895 20.2594 2.21191Z" fill="#0065A9"/>
<path d="M20.2594 18.6668L15.9349 20.7496C15.6906 20.867 15.4158 20.9057 15.1486 20.8603C14.8814 20.8149 14.6349 20.6876 14.4431 20.4961L0.286853 7.58935C0.115096 7.4335 0.0122829 7.2158 0.00103082 6.98415C-0.0102213 6.7525 0.0710089 6.52586 0.226853 6.3541C0.245603 6.33385 0.264353 6.31435 0.284603 6.29635L1.44035 5.24635C1.59153 5.10832 1.78637 5.02775 1.99088 5.01871C2.19539 5.00966 2.39658 5.07271 2.55935 5.19685L19.6084 18.1268C19.7371 18.2246 19.8907 18.2844 20.0516 18.2996C20.2126 18.3149 20.3746 18.2848 20.5194 18.213C20.6642 18.1411 20.7861 18.0302 20.8714 17.8929C20.9566 17.7555 21.0018 17.597 21.0019 17.4353V17.4893C21.001 17.7355 20.931 17.9765 20.7997 18.1847C20.6684 18.3929 20.4811 18.56 20.2594 18.6668Z" fill="#007ACC"/>
<path d="M15.9349 20.7496C15.6906 20.867 15.4159 20.9057 15.1487 20.8603C14.8814 20.8149 14.6349 20.6876 14.4431 20.4961C14.5508 20.6024 14.6875 20.6745 14.836 20.7035C14.9846 20.7325 15.1383 20.7169 15.2781 20.6589C15.4178 20.6008 15.5373 20.5028 15.6216 20.3771C15.7059 20.2514 15.7512 20.1037 15.7519 19.9523V0.926347C15.752 0.774314 15.707 0.625663 15.6226 0.499227C15.5381 0.37279 15.4181 0.274256 15.2776 0.216107C15.1371 0.157958 14.9826 0.14281 14.8335 0.172582C14.6844 0.202354 14.5475 0.275706 14.4401 0.383347C14.6318 0.191603 14.8783 0.0641432 15.1455 0.018595C15.4127 -0.0269532 15.6875 0.011661 15.9319 0.129097L20.2556 2.2081C20.4787 2.3146 20.6672 2.48201 20.7992 2.69102C20.9313 2.90003 21.0015 3.14212 21.0019 3.38935V17.4893C21.0019 17.7364 20.9322 17.9784 20.8007 18.1875C20.6692 18.3966 20.4813 18.5644 20.2586 18.6713L15.9349 20.7496Z" fill="#1F9CF0"/>
</svg>
